HIERARCHY
ROOT joint_Root
{
	OFFSET 0.0 0.0 0.0
	CHANNELS 6 Xposition Yposition Zposition Zrotation Xrotation Yrotation 
	JOINT Hips
	{
		OFFSET -0.726466 93.3139 -2.00062
		CHANNELS 6 Xposition Yposition Zposition Zrotation Xrotation Yrotation 
		JOINT Spine
		{
			OFFSET 15.7357 0.0 0.0
			CHANNELS 6 Xposition Yposition Zposition Zrotation Xrotation Yrotation 
			JOINT Chest
			{
				OFFSET 8.98455 -0.406207 0.0
				CHANNELS 6 Xposition Yposition Zposition Zrotation Xrotation Yrotation 
				JOINT Neck
				{
					OFFSET 16.3773 0.0 0.0
					CHANNELS 6 Xposition Yposition Zposition Zrotation Xrotation Yrotation 
					JOINT Head
					{
						OFFSET 6.45672 0.0 0.0
						CHANNELS 6 Xposition Yposition Zposition Zrotation Xrotation Yrotation 
						End Site
						{
							OFFSET 0.0 0.0 0.0
						}
					}
				}
				JOINT Shoulder_L
				{
					OFFSET 12.9942 -0.242716 4.98039
					CHANNELS 6 Xposition Yposition Zposition Zrotation Xrotation Yrotation 
					JOINT UpperArm_L
					{
						OFFSET 5.34809 0.0 0.0
						CHANNELS 6 Xposition Yposition Zposition Zrotation Xrotation Yrotation 
						JOINT LowerArm_L
						{
							OFFSET 24.3286 1.87007e-05 0.0
							CHANNELS 6 Xposition Yposition Zposition Zrotation Xrotation Yrotation 
							JOINT Hand_L
							{
								OFFSET 22.2916 0.0 0.0
								CHANNELS 6 Xposition Yposition Zposition Zrotation Xrotation Yrotation 
								End Site
								{
									OFFSET 0.0 0.0 0.0
								}
							}
						}
					}
				}
				JOINT Shoulder_R
				{
					OFFSET 12.9945 -0.242716 -4.98039
					CHANNELS 6 Xposition Yposition Zposition Zrotation Xrotation Yrotation 
					JOINT UpperArm_R
					{
						OFFSET -5.34813 0.0 0.0
						CHANNELS 6 Xposition Yposition Zposition Zrotation Xrotation Yrotation 
						JOINT LowerArm_R
						{
							OFFSET -24.3289 0.000322201 0.0
							CHANNELS 6 Xposition Yposition Zposition Zrotation Xrotation Yrotation 
							JOINT Hand_R
							{
								OFFSET -22.2915 -0.000108084 0.0
								CHANNELS 6 Xposition Yposition Zposition Zrotation Xrotation Yrotation 
								End Site
								{
									OFFSET 0.0 0.0 0.0
								}
							}
						}
					}
				}
			}
		}
		JOINT UpperLeg_L
		{
			OFFSET -2.19248 -6.46944 0.0
			CHANNELS 6 Xposition Yposition Zposition Zrotation Xrotation Yrotation 
			JOINT LowerLeg_L
			{
				OFFSET 39.0811 0.0 -1.23785e-05
				CHANNELS 6 Xposition Yposition Zposition Zrotation Xrotation Yrotation 
				JOINT Foot_L
				{
					OFFSET 40.9854 0.0 -1.26872e-05
					CHANNELS 6 Xposition Yposition Zposition Zrotation Xrotation Yrotation 
					JOINT Toes_L
					{
						OFFSET 11.7543 0.0 0.0
						CHANNELS 6 Xposition Yposition Zposition Zrotation Xrotation Yrotation 
						End Site
						{
							OFFSET 0.0 0.0 0.0
						}
					}
				}
			}
		}
		JOINT UpperLeg_R
		{
			OFFSET -2.19251 6.46944 0.0
			CHANNELS 6 Xposition Yposition Zposition Zrotation Xrotation Yrotation 
			JOINT LowerLeg_R
			{
				OFFSET -39.0811 -0.00228153 -0.0401928
				CHANNELS 6 Xposition Yposition Zposition Zrotation Xrotation Yrotation 
				JOINT Foot_R
				{
					OFFSET -40.9854 0.0 0.0
					CHANNELS 6 Xposition Yposition Zposition Zrotation Xrotation Yrotation 
					JOINT Toes_R
					{
						OFFSET -11.7543 0.0 0.0
						CHANNELS 6 Xposition Yposition Zposition Zrotation Xrotation Yrotation 
						End Site
						{
							OFFSET 0.0 0.0 0.0
						}
					}
				}
			}
		}
	}
}
MOTION
Frames:	6
Frame Time:	0.0333333
0.000000 0.000000 0.000000 0.000000 0.000000 -0.000000 -1.010920 92.790000 -0.161611 88.956700 -2.897610 2.898190 15.735700 0.000005 -0.000001 92.322400 86.290700 -92.375300 8.984550 -0.406207 -0.000000 -0.353459 0.304293 -0.104912 16.377300 -0.000001 -0.000001 5.444670 -2.467030 2.488220 6.456720 -0.000001 -0.000000 11.492300 -2.067970 -3.528930 12.994200 -0.242716 4.980390 -90.557700 1.800080 -72.784200 5.348090 -0.000007 -0.000001 -66.513100 41.353100 -14.413600 24.328600 0.000019 0.000005 5.016640 11.729300 -23.352600 22.291600 -0.000001 0.000005 2.133210 5.475680 -5.584550 12.994500 -0.242716 -4.980390 87.786400 7.416660 -73.329800 -5.348130 -0.000001 -0.000004 -64.535100 42.811300 -11.487000 -24.328900 0.000322 -0.000009 3.240280 8.868580 -20.170300 -22.291500 -0.000108 -0.000004 6.213320 5.362540 -1.757000 -2.192480 -6.469440 -0.000000 -176.435000 -7.614340 -0.917760 39.081100 -0.000007 -0.000012 -0.062924 0.195097 17.876000 40.985400 -0.000006 -0.000013 -0.362658 3.660740 -64.185800 11.754300 -0.000000 0.000003 -0.000003 -0.000039 -16.579000 -2.192510 6.469440 -0.000001 179.584000 9.015110 -179.474000 -39.081100 -0.002282 -0.040193 -0.054770 0.209361 15.509900 -40.985400 0.000008 0.000006 1.511180 6.971480 -63.503700 -11.754300 -0.000006 -0.000006 -0.006000 -0.070831 -19.455800
0.000000 0.000000 0.000000 0.000000 0.000000 -0.000000 -1.027230 92.790400 -0.173029 88.951800 -2.928940 2.886150 15.735700 0.000005 -0.000001 92.768700 86.286700 -92.772400 8.984550 -0.406207 -0.000000 -0.348028 0.358922 -0.006447 16.377300 -0.000001 -0.000001 5.446170 -2.479220 2.492420 6.456720 -0.000001 -0.000000 11.389600 -2.202290 -3.671140 12.994200 -0.242716 4.980390 -90.633600 2.005740 -72.467100 5.348090 -0.000007 -0.000001 -65.340500 40.959600 -15.043300 24.328600 0.000019 0.000005 7.813360 15.850700 -26.666700 22.291600 -0.000001 0.000005 -0.440757 5.469700 -5.359870 12.994500 -0.242716 -4.980390 87.789100 7.385190 -73.282100 -5.348130 -0.000001 -0.000004 -64.751000 42.509100 -11.279000 -24.328900 0.000322 -0.000009 3.255380 8.898540 -20.194600 -22.291500 -0.000108 -0.000004 6.272130 5.360860 -1.706140 -2.192480 -6.469440 -0.000000 -176.402000 -7.697830 -0.931270 39.081100 -0.000007 -0.000012 -0.063251 0.196111 17.875900 40.985400 -0.000006 -0.000013 -0.367218 3.743290 -64.179000 11.754300 -0.000000 0.000003 -0.000003 -0.000046 -16.579300 -2.192510 6.469440 -0.000001 179.603000 8.978720 -179.502000 -39.081100 -0.002282 -0.040193 -0.055782 0.212910 15.516600 -40.985400 0.000008 0.000006 1.518120 6.960170 -63.495400 -11.754300 -0.000006 -0.000006 -0.005984 -0.070693 -19.450200
0.000000 0.000000 0.000000 0.000000 0.000000 -0.000000 -1.055050 92.801900 -0.214235 88.966500 -2.787260 2.847170 15.735700 0.000005 -0.000001 93.419100 86.280800 -93.362100 8.984550 -0.406207 -0.000000 -0.341080 0.439492 0.115339 16.377300 -0.000001 -0.000001 5.382190 -2.520370 2.544190 6.456720 -0.000001 -0.000000 11.272400 -2.426390 -3.958100 12.994200 -0.242716 4.980390 -90.776800 2.404100 -72.087300 5.348090 -0.000007 -0.000001 -63.341100 39.316200 -15.933300 24.328600 0.000019 0.000005 10.243900 16.704400 -32.162400 22.291600 -0.000001 0.000005 -2.566390 5.488350 -6.072800 12.994500 -0.242716 -4.980390 87.797000 7.320260 -73.199900 -5.348130 -0.000001 -0.000004 -65.090500 42.009800 -10.959000 -24.328900 0.000322 -0.000009 3.257060 8.902140 -20.196800 -22.291500 -0.000108 -0.000004 6.324670 5.357850 -1.613100 -2.192480 -6.469440 -0.000000 -176.397000 -7.729910 -0.985792 39.081100 -0.000007 -0.000012 -0.062459 0.194499 17.803100 40.985400 -0.000006 -0.000013 -0.363514 3.887800 -64.093700 11.754300 -0.000000 0.000003 -0.000002 -0.000027 -16.578600 -2.192510 6.469440 -0.000001 179.608000 9.155370 -179.519000 -39.081100 -0.002282 -0.040193 -0.055090 0.211535 15.438500 -40.985400 0.000008 0.000006 1.535330 6.963050 -63.442600 -11.754300 -0.000006 -0.000006 -0.006138 -0.072085 -19.507000
0.000000 0.000000 0.000000 0.000000 0.000000 -0.000000 -1.105980 92.805700 -0.277667 88.991400 -2.485850 2.835690 15.735700 0.000005 -0.000001 94.282500 86.257100 -94.170000 8.984550 -0.406207 -0.000000 -0.301680 0.550955 0.226416 16.377300 -0.000001 -0.000001 5.311310 -2.611470 2.591040 6.456720 -0.000001 -0.000000 11.113800 -2.697920 -4.101570 12.994200 -0.242716 4.980390 -90.890400 2.686120 -71.653500 5.348090 -0.000007 -0.000001 -60.701200 36.662800 -17.463600 24.328600 0.000019 0.000005 10.639400 13.512900 -38.809900 22.291600 -0.000001 0.000005 -0.959712 5.515190 -7.143080 12.994500 -0.242716 -4.980390 87.799100 7.280620 -73.129300 -5.348130 -0.000001 -0.000004 -65.339300 41.768800 -10.608900 -24.328900 0.000322 -0.000009 3.209230 8.765050 -20.207500 -22.291500 -0.000108 -0.000004 6.284010 5.361920 -1.738100 -2.192480 -6.469440 -0.000000 -176.389000 -7.583070 -1.092340 39.081100 -0.000007 -0.000012 -0.062536 0.194633 17.812200 40.985400 -0.000006 -0.000013 -0.368841 4.067270 -64.020700 11.754300 -0.000000 0.000003 -0.000003 -0.000039 -16.579000 -2.192510 6.469440 -0.000001 179.621000 9.396410 -179.562000 -39.081100 -0.002282 -0.040193 -0.054527 0.209223 15.457700 -40.985400 0.000008 0.000006 1.569540 6.910150 -63.436000 -11.754300 -0.000006 -0.000006 -0.006157 -0.072251 -19.513700
0.000000 0.000000 0.000000 0.000000 0.000000 -0.000000 -1.182440 92.816300 -0.362919 89.060800 -1.893720 2.838380 15.735700 0.000005 -0.000001 94.944700 86.222700 -94.800400 8.984550 -0.406207 -0.000000 -0.240340 0.640926 0.289702 16.377300 -0.000001 -0.000001 5.303080 -2.753700 2.589990 6.456720 -0.000001 -0.000000 10.857700 -3.144630 -4.022530 12.994200 -0.242716 4.980390 -90.918000 2.716080 -71.316600 5.348090 -0.000007 -0.000001 -57.946900 32.736400 -19.897500 24.328600 0.000019 0.000005 10.929100 10.539200 -46.554900 22.291600 -0.000001 0.000005 1.982010 5.532070 -7.878900 12.994500 -0.242716 -4.980390 87.793500 7.259510 -73.043000 -5.348130 -0.000001 -0.000004 -65.431200 41.905100 -10.360000 -24.328900 0.000322 -0.000009 3.245990 8.900470 -20.137000 -22.291500 -0.000108 -0.000004 6.256080 5.360690 -1.700710 -2.192480 -6.469440 -0.000000 -176.419000 -7.259080 -1.201380 39.081100 -0.000007 -0.000012 -0.061882 0.193363 17.746200 40.985400 -0.000006 -0.000013 -0.379895 4.322310 -63.870400 11.754300 -0.000000 0.000003 -0.000003 -0.000039 -16.579000 -2.192510 6.469440 -0.000001 179.616000 9.738480 -179.565000 -39.081100 -0.002282 -0.040193 -0.054178 0.208198 15.441100 -40.985400 0.000008 0.000006 1.591170 6.656410 -63.420400 -11.754300 -0.000006 -0.000006 -0.006142 -0.072117 -19.508200
0.000000 0.000000 0.000000 0.000000 0.000000 -0.000000 -1.285170 92.824500 -0.448469 89.144500 -1.201930 2.865350 15.735700 0.000005 -0.000001 95.524800 86.206400 -95.349700 8.984550 -0.406207 -0.000000 -0.215157 0.718095 0.351403 16.377300 -0.000001 -0.000001 5.379150 -2.935010 2.589070 6.456720 -0.000001 -0.000000 10.638700 -3.558290 -3.961320 12.994200 -0.242716 4.980390 -90.852700 2.492750 -71.108500 5.348090 -0.000007 -0.000001 -55.691100 27.665300 -23.017600 24.328600 0.000019 0.000005 11.995600 8.604080 -54.854400 22.291600 -0.000001 0.000005 3.943240 5.542960 -8.373710 12.994500 -0.242716 -4.980390 87.796700 7.271580 -73.092600 -5.348130 -0.000001 -0.000004 -65.536100 42.007100 -10.034900 -24.328900 0.000322 -0.000009 3.254450 9.035090 -19.910600 -22.291500 -0.000108 -0.000004 6.274370 5.361870 -1.736680 -2.192480 -6.469440 -0.000000 -176.447000 -6.847000 -1.295140 39.081100 -0.000007 -0.000012 -0.060849 0.190896 17.679900 40.985400 -0.000006 -0.000013 -0.403782 4.607410 -63.714600 11.754300 -0.000000 0.000003 -0.000003 -0.000041 -16.579100 -2.192510 6.469440 -0.000001 179.599000 10.182500 -179.553000 -39.081100 -0.002282 -0.040193 -0.054853 0.210423 15.456200 -40.985400 0.000008 0.000006 1.628320 6.397770 -63.429000 -11.754300 -0.000006 -0.000006 -0.006048 -0.071273 -19.473800
